HIERARCHY
ROOT Hips
{
  OFFSET 122.866 92.2566 -16.2557
  CHANNELS 6 Xposition Yposition Zposition Zrotation Xrotation Yrotation
  JOINT ToSpine
  {
    OFFSET -2.69724 7.43032 -0.144315
    CHANNELS 3 Zrotation Xrotation Yrotation
    JOINT Spine
    {
      OFFSET -0.0310711 10.7595 1.96963
      CHANNELS 3 Zrotation Xrotation Yrotation
      JOINT Spine1
      {
        OFFSET 13.1342 3.43533 0.764692
        CHANNELS 3 Zrotation Xrotation Yrotation
        JOINT Neck
        {
          OFFSET 29.8703 7.82586 -0.130764
          CHANNELS 3 Zrotation Xrotation Yrotation
          JOINT Head
          {
            OFFSET 9.52751 0.295786 -0.907742
            CHANNELS 3 Zrotation Xrotation Yrotation
            End Site
            {
              OFFSET 16.4037 0.713936 2.7358
            }
          }
        }
        JOINT LeftShoulder
        {
          OFFSET 27.5574 4.95586 2.47156
          CHANNELS 3 Zrotation Xrotation Yrotation
          JOINT LeftArm
          {
            OFFSET 1.20734 -0.998971 20.1238
            CHANNELS 3 Zrotation Xrotation Yrotation
            JOINT LeftForeArm
            {
              OFFSET 26.8049 -0.0536703 -0.155908
              CHANNELS 3 Zrotation Xrotation Yrotation
              JOINT LeftHand
              {
                OFFSET 26.6817 0 0.320147
                CHANNELS 3 Zrotation Xrotation Yrotation
                End Site
                {
                  OFFSET 18.6119 0 0.382219
                }
              }
            }
          }
        }
        JOINT RightShoulder
        {
          OFFSET 27.5927 4.71444 -2.65209
          CHANNELS 3 Zrotation Xrotation Yrotation
          JOINT RightArm
          {
            OFFSET 2.83739 -1.17114 -18.7564
            CHANNELS 3 Zrotation Xrotation Yrotation
            JOINT RightForeArm
            {
              OFFSET 28.839 -0.0548439 1.22491
              CHANNELS 3 Zrotation Xrotation Yrotation
              JOINT RightHand
              {
                OFFSET 26.5114 0 -0.101894
                CHANNELS 3 Zrotation Xrotation Yrotation
                End Site
                {
                  OFFSET 18.2168 0 0
                }
              }
            }
          }
        }
      }
    }
  }
  JOINT LeftUpLeg
  {
    OFFSET -4.76168 -1.9167 -10.2353
    CHANNELS 3 Zrotation Xrotation Yrotation
    JOINT LeftLeg
    {
      OFFSET 2.55951 -42.0585 -8.02213
      CHANNELS 3 Zrotation Xrotation Yrotation
      JOINT LeftFoot
      {
        OFFSET 3.16357 -42.5282 -3.95426
        CHANNELS 3 Zrotation Xrotation Yrotation
        JOINT LeftToeBase
        {
          OFFSET 0.346054 -6.02161 12.8035
          CHANNELS 3 Zrotation Xrotation Yrotation
          End Site
          {
            OFFSET 0.134235 -1.35082 5.13018
          }
        }
      }
    }
  }
  JOINT RightUpLeg
  {
    OFFSET -4.94151 -1.41743 10.6446
    CHANNELS 3 Zrotation Xrotation Yrotation
    JOINT RightLeg
    {
      OFFSET -2.56294 -42.0364 -7.94377
      CHANNELS 3 Zrotation Xrotation Yrotation
      JOINT RightFoot
      {
        OFFSET -3.0952 -42.555 -4.02241
        CHANNELS 3 Zrotation Xrotation Yrotation
        JOINT RightToeBase
        {
          OFFSET -0.0828122 -6.13587 12.8035
          CHANNELS 3 Zrotation Xrotation Yrotation
          End Site
          {
            OFFSET -0.131328 -1.35082 5.13018
          }
        }
      }
    }
  }
}
MOTION
Frames:	10
Frame Time:	0.0333333
108.8 93.4464 -26.1149 -61.329 -52.2685 -156.315 -70.1915 0 88.8779 73.4658 69.7533 20.4408 6.76322 20.6971 -0.69334 -128.721 11.889 -166.993 -144.585 44.1558 178.893 -1.25403 -19.4257 -35.4551 -130.609 15.8381 -78.7767 20.638 -3.98919 -99.7012 0.420957 0.000575671 0.35866 -1.09976 7.26241 29.4709 -47.6185 -30.1824 151.485 19.2973 5.55417 105.137 0.58676 0.000330944 0.0646653 -38.1923 14.7673 95.7422 -2.06062 33.8933 -5.91195 -2.18459 1.35663 0.323019 2.71971 -3.23266 -7.90927 -57.4352 -7.56336 84.8326 -0.811134 34.1267 -5.49884 -14.0835 -15.6028 1.26776 2.3636 -18.7903 9.18964 
108.76 93.429 -26.1149 -61.3861 -52.6721 -156.168 -70.1915 0 88.8779 73.5167 69.7297 20.2256 6.80963 20.5932 -0.451235 -128.502 12.07 -167.367 -144.36 44.3578 178.714 -1.29151 -19.5437 -35.5389 -130.532 15.9309 -78.6315 20.6974 -3.97418 -99.6318 0.420957 0.000575671 0.35866 -1.09429 7.2357 29.4859 -47.598 -30.1011 151.338 19.5552 5.63942 105.15 0.58676 0.000330944 0.0646653 -38.2117 14.7762 95.6312 -2.0848 33.9905 -6.07879 -2.00423 1.43749 0.305353 2.83537 -3.35427 -8.36677 -57.7993 -7.5067 84.5822 -0.785362 34.0968 -5.81901 -14.0528 -15.7107 1.26315 2.35278 -18.742 9.35495 
108.725 93.4286 -26.1131 -61.2329 -52.9408 -156.026 -70.1915 0 88.8779 73.4967 69.6475 20.3786 6.79932 20.5868 -0.693893 -128.374 11.9752 -167.534 -144.316 44.2842 178.738 -1.30622 -19.6041 -35.534 -130.341 15.9575 -78.4286 20.8745 -4.03754 -99.6975 0.420957 0.000575671 0.35866 -1.10775 7.25783 29.5097 -47.4842 -30.0669 151.395 20.6643 5.84173 104.8 0.58676 0.000330944 0.0646653 -38.2233 14.6537 95.6129 -2.10929 33.9063 -6.38466 -2.1275 1.43145 0.3222 2.74757 -3.28774 -7.95712 -57.8813 -7.43341 84.7712 -0.769956 34.201 -5.53721 -13.5501 -15.7602 1.2653 2.2781 -18.39 8.04926 
108.678 93.3987 -26.1118 -60.8556 -53.2259 -155.787 -70.1915 0 88.8779 72.3632 69.5288 21.3087 6.94622 20.5684 -0.62512 -128.271 11.9054 -167.656 -144.232 44.2358 178.821 -1.3596 -19.7144 -35.8094 -130.073 15.7644 -78.5637 20.9057 -4.04409 -99.6973 0.420957 0.000575671 0.35866 -1.10735 7.28429 29.4478 -47.2471 -30.0381 151.437 20.6475 5.79947 104.71 0.58676 0.000330944 0.0646653 -38.1014 14.5702 95.8979 -2.11828 33.857 -6.51168 -2.05898 1.34776 0.304576 2.7319 -2.86741 -8.88462 -57.8462 -7.51159 84.8473 -0.778709 34.2646 -5.39276 -13.8342 -15.7347 1.26362 2.37483 -18.8962 7.00196 
108.644 93.3547 -26.1434 -60.6233 -53.3216 -155.723 -70.1915 0 88.8779 71.7679 69.4802 21.7786 6.99699 20.6146 -0.753965 -128.254 11.7584 -167.715 -144.071 44.1453 179.164 -1.27125 -19.4769 -35.5047 -129.751 16.1526 -78.5054 20.8201 -3.97558 -99.5708 0.420957 0.000575671 0.35866 -1.0956 7.25605 29.3492 -47.1589 -29.8685 151.846 20.5128 5.67176 104.498 0.58676 0.000330944 0.0646653 -37.9977 14.336 95.7688 -2.11398 33.8653 -6.46495 -2.01885 1.23314 0.287765 2.6365 -2.74465 -8.5733 -57.6267 -7.63196 85.0916 -0.68373 34.6135 -6.64003 -14.2407 -16.0961 1.24303 2.33172 -18.6579 8.19305 
108.559 93.2818 -26.1998 -60.5617 -53.4464 -155.552 -70.1915 0 88.8779 73.0134 69.6441 20.3489 6.17449 20.607 -0.48607 -128.07 11.5854 -167.824 -143.904 44.0164 179.518 -1.13817 -19.098 -35.0632 -128.15 16.5405 -77.9428 18.8825 -3.53188 -99.4452 0.420957 0.000575671 0.35866 -1.11363 7.38828 29.282 -46.887 -29.9923 151.961 20.732 5.60348 104.173 0.58676 0.000330944 0.0646653 -37.8061 14.1461 94.9273 -2.13073 34.1505 -6.46632 -2.6335 0.908732 0.341929 2.48885 -2.8329 -7.41247 -57.6296 -7.41113 85.1822 -0.62374 34.7772 -6.78511 -14.5346 -16.2165 1.23318 2.38267 -18.9225 7.37518 
108.438 93.1748 -26.1475 -59.7994 -53.6246 -154.657 -70.1915 0 88.8779 74.7257 69.7924 18.929 4.6957 20.6984 -0.50267 -127.776 11.7299 -167.683 -144.61 44.3409 -179.455 -0.928223 -18.4042 -34.6121 -124.479 17.4623 -76.0552 15.8607 -2.75831 -98.845 0.420957 0.000575671 0.35866 -1.12308 7.25186 29.7549 -46.6529 -29.7693 151.656 20.4741 5.46619 104.016 0.58676 0.000330944 0.0646653 -36.9295 14.1271 94.0977 -2.16248 35.0025 -6.28543 -3.05803 0.185299 0.321878 2.56882 -2.23007 -9.3605 -57.4013 -7.29334 84.8092 -0.472903 34.9209 -6.57579 -14.6992 -16.422 1.22027 2.44789 -19.3018 6.33272 
108.277 93.1328 -25.9317 -58.2967 -53.6654 -152.851 -70.1915 0 88.8779 75.5031 69.5537 20.2114 4.30443 20.9964 -2.33604 -128.317 11.9131 -167.248 -145.644 44.8551 -178.008 -0.574867 -17.0347 -34.2716 -120.225 19.7653 -72.3873 14.6896 -2.32437 -98.0377 0.420957 0.000575671 0.35866 -1.16542 7.2311 30.4104 -46.5249 -28.8223 152.133 21.1131 5.39887 103.403 0.58676 0.000330944 0.0646653 -35.2237 14.3725 93.0156 -2.28661 36.4237 -6.5406 -4.72379 -0.804917 0.426705 2.43393 -0.924831 -11.337 -57.1632 -6.88545 84.1654 -0.525664 34.3556 -6.40264 -14.8452 -16.1843 1.2314 2.4571 -19.4048 5.1347 
108.259 93.0687 -25.5523 -56.4123 -54.4888 -150.404 -70.1915 0 88.8779 75.4786 70.1316 21.1894 4.00222 21.6667 -2.32882 -129.035 12.6892 -168.196 -146.256 46.2334 -177.24 -0.702403 -17.1781 -35.6943 -116.028 22.291 -66.9725 12.6363 -1.73189 -96.5466 0.420957 0.000575671 0.35866 -1.09034 7.01797 29.8733 -47.2593 -28.7565 152.05 23.1398 5.68297 102.762 0.58676 0.000330944 0.0646653 -32.9043 15.251 93.2511 -2.71401 38.7343 -8.8317 -6.56099 -0.981935 0.624229 2.53063 -0.742362 -12.2519 -57.7278 -7.14816 81.6772 -0.486185 33.3436 -5.41334 -15.6295 -15.9169 1.23689 2.50115 -19.749 3.90273 
108.305 92.9706 -24.9428 -53.6196 -56.3414 -146.848 -70.1915 0 88.8779 76.2848 70.712 21.1683 3.74336 22.314 -2.60972 -129.55 13.5835 -170.07 -146.788 47.9584 -176.208 -0.763507 -17.1373 -36.7418 -112.474 25.888 -60.7739 12.54 -0.513495 -93.3617 0.420957 0.000575671 0.35866 -1.1174 7.14058 29.9542 -49.7923 -29.0414 150.79 25.721 5.93659 101.844 0.58676 0.000330944 0.0646653 -30.0014 15.9711 93.3413 -3.51845 41.8418 -14.0064 -8.87948 -1.81783 0.781952 2.48031 -1.75734 -9.84214 -59.2456 -7.78002 78.552 0.117323 31.6408 -5.58638 -15.406 -16.1522 1.22549 2.42485 -19.2418 4.9641 
